<mxfile host="65bd71144e">
    <diagram id="ZiaTf37jT682Fh6W_lhd" name="Page-1">
        <mxGraphModel dx="3192" dy="2204" grid="1" gridSize="10" guides="1" tooltips="1" connect="1" arrows="1" fold="1" page="1" pageScale="1" pageWidth="850" pageHeight="1100" background="#EDEDED" math="0" shadow="0">
            <root>
                <mxCell id="0"/>
                <mxCell id="1" parent="0"/>
                <mxCell id="46" value="" style="whiteSpace=wrap;html=1;aspect=fixed;rotation=0;labelBackgroundColor=none;fontSize=20;fillColor=#eeeeee;strokeColor=#36393d;" vertex="1" parent="1">
                    <mxGeometry x="-20" y="-531.67" width="2450" height="1633.33" as="geometry"/>
                </mxCell>
                <mxCell id="2" value="&lt;font color=&quot;#000000&quot; style=&quot;font-size: 22px;&quot;&gt;GUI Wireframe&lt;/font&gt;" style="whiteSpace=wrap;html=1;aspect=fixed;rotation=0;fillColor=#eeeeee;strokeColor=#36393d;" vertex="1" parent="1">
                    <mxGeometry x="40" y="40" width="600" height="400" as="geometry"/>
                </mxCell>
                <mxCell id="3" value="" style="shape=singleArrow;whiteSpace=wrap;html=1;fontSize=22;fillColor=#eeeeee;strokeColor=#36393d;" vertex="1" parent="1">
                    <mxGeometry x="640" y="170" width="280" height="140" as="geometry"/>
                </mxCell>
                <mxCell id="4" value="&lt;font color=&quot;#000000&quot;&gt;Invoker&lt;/font&gt;" style="whiteSpace=wrap;html=1;aspect=fixed;rotation=0;fontSize=22;fillColor=#eeeeee;strokeColor=#36393d;" vertex="1" parent="1">
                    <mxGeometry x="920" y="40" width="600" height="400" as="geometry"/>
                </mxCell>
                <mxCell id="6" value="" style="shape=singleArrow;direction=south;whiteSpace=wrap;html=1;fontSize=22;fillColor=#eeeeee;strokeColor=#36393d;" vertex="1" parent="1">
                    <mxGeometry x="1040" y="440" width="70" height="240" as="geometry"/>
                </mxCell>
                <mxCell id="7" value="&lt;span style=&quot;font-family: Helvetica; font-size: 22px; font-style: normal; font-variant-ligatures: normal; font-variant-caps: normal; font-weight: 400; letter-spacing: normal; orphans: 2; text-align: center; text-indent: 0px; text-transform: none; widows: 2; word-spacing: 0px; -webkit-text-stroke-width: 0px; text-decoration-thickness: initial; text-decoration-style: initial; text-decoration-color: initial; float: none; display: inline !important;&quot;&gt;Invoker requests a certain command object using the Command Event as a guide&lt;/span&gt;" style="text;whiteSpace=wrap;html=1;fontSize=22;labelBackgroundColor=#EDEDED;fontColor=#000000;" vertex="1" parent="1">
                    <mxGeometry x="810" y="490" width="250" height="120" as="geometry"/>
                </mxCell>
                <mxCell id="8" value="" style="shape=singleArrow;direction=north;whiteSpace=wrap;html=1;fontSize=22;fillColor=#eeeeee;strokeColor=#36393d;" vertex="1" parent="1">
                    <mxGeometry x="1310" y="440" width="80" height="240" as="geometry"/>
                </mxCell>
                <mxCell id="9" value="&lt;span style=&quot;font-family: Helvetica; font-size: 22px; font-style: normal; font-variant-ligatures: normal; font-variant-caps: normal; font-weight: 400; letter-spacing: normal; orphans: 2; text-align: center; text-indent: 0px; text-transform: none; widows: 2; word-spacing: 0px; -webkit-text-stroke-width: 0px; text-decoration-thickness: initial; text-decoration-style: initial; text-decoration-color: initial; float: none; display: inline !important;&quot;&gt;Returns the corresponding Command Object to the Invoker&amp;nbsp;&lt;/span&gt;" style="text;whiteSpace=wrap;html=1;fontSize=22;labelBackgroundColor=#EDEDED;fontColor=#000000;" vertex="1" parent="1">
                    <mxGeometry x="1370" y="500" width="210" height="80" as="geometry"/>
                </mxCell>
                <mxCell id="10" value="&lt;span style=&quot;font-family: Helvetica; font-size: 22px; font-style: normal; font-variant-ligatures: normal; font-variant-caps: normal; font-weight: 400; letter-spacing: normal; orphans: 2; text-align: center; text-indent: 0px; text-transform: none; widows: 2; word-spacing: 0px; -webkit-text-stroke-width: 0px; text-decoration-thickness: initial; text-decoration-style: initial; text-decoration-color: initial; float: none; display: inline !important;&quot;&gt;Command Event (copy, paste, etc)&lt;/span&gt;" style="text;whiteSpace=wrap;html=1;fontSize=22;labelBackgroundColor=#EEEEEE;fillColor=none;fontColor=#000000;" vertex="1" parent="1">
                    <mxGeometry x="595" y="222.5" width="370" height="50" as="geometry"/>
                </mxCell>
                <mxCell id="11" value="" style="curved=1;endArrow=classic;html=1;fontSize=22;exitX=0.865;exitY=0.4;exitDx=0;exitDy=0;entryX=0;entryY=0.5;entryDx=0;entryDy=0;entryPerimeter=0;exitPerimeter=0;" edge="1" parent="1" source="10" target="6">
                    <mxGeometry width="50" height="50" relative="1" as="geometry">
                        <mxPoint x="1140" y="420" as="sourcePoint"/>
                        <mxPoint x="1190" y="370" as="targetPoint"/>
                        <Array as="points">
                            <mxPoint x="970" y="380"/>
                            <mxPoint x="1080" y="370"/>
                        </Array>
                    </mxGeometry>
                </mxCell>
                <mxCell id="13" value="CommandFactory class" style="rounded=0;whiteSpace=wrap;html=1;fontSize=22;fillColor=#eeeeee;strokeColor=#36393d;fontColor=#000000;" vertex="1" parent="1">
                    <mxGeometry x="920" y="680" width="600" height="60" as="geometry"/>
                </mxCell>
                <mxCell id="14" value="Copy" style="rounded=0;whiteSpace=wrap;html=1;fontSize=22;fillColor=#eeeeee;strokeColor=#36393d;fontColor=#000000;" vertex="1" parent="1">
                    <mxGeometry x="920" y="920" width="120" height="60" as="geometry"/>
                </mxCell>
                <mxCell id="15" value="Paste" style="rounded=0;whiteSpace=wrap;html=1;fontSize=22;fillColor=#eeeeee;strokeColor=#36393d;fontColor=#000000;" vertex="1" parent="1">
                    <mxGeometry x="1080" y="920" width="120" height="60" as="geometry"/>
                </mxCell>
                <mxCell id="17" value="Move" style="rounded=0;whiteSpace=wrap;html=1;fontSize=22;fillColor=#eeeeee;strokeColor=#36393d;fontColor=#000000;" vertex="1" parent="1">
                    <mxGeometry x="1240" y="920" width="120" height="60" as="geometry"/>
                </mxCell>
                <mxCell id="18" value="Delete" style="rounded=0;whiteSpace=wrap;html=1;fontSize=22;fillColor=#eeeeee;strokeColor=#36393d;fontColor=#000000;" vertex="1" parent="1">
                    <mxGeometry x="1400" y="920" width="120" height="60" as="geometry"/>
                </mxCell>
                <mxCell id="19" value="Rename" style="rounded=0;whiteSpace=wrap;html=1;fontSize=22;fillColor=#eeeeee;strokeColor=#36393d;fontColor=#000000;" vertex="1" parent="1">
                    <mxGeometry x="920" y="1000" width="120" height="60" as="geometry"/>
                </mxCell>
                <mxCell id="20" value="Undo" style="rounded=0;whiteSpace=wrap;html=1;fontSize=22;fillColor=#eeeeee;strokeColor=#36393d;fontColor=#000000;" vertex="1" parent="1">
                    <mxGeometry x="1080" y="1000" width="120" height="60" as="geometry"/>
                </mxCell>
                <mxCell id="21" value="..." style="rounded=0;whiteSpace=wrap;html=1;fontSize=22;fillColor=#eeeeee;strokeColor=#36393d;fontColor=#000000;" vertex="1" parent="1">
                    <mxGeometry x="1240" y="1000" width="120" height="60" as="geometry"/>
                </mxCell>
                <mxCell id="22" value="..." style="rounded=0;whiteSpace=wrap;html=1;fontSize=22;fillColor=#eeeeee;strokeColor=#36393d;fontColor=#000000;" vertex="1" parent="1">
                    <mxGeometry x="1400" y="1000" width="120" height="60" as="geometry"/>
                </mxCell>
                <mxCell id="24" value="The CommandFactory class is not the Command Super class, but instead a separate class designed to make the Invoker's job easier. It takes in a certain Command name, like &quot;Copy&quot; and returns the corresponding command, &quot;CopyCommand&quot;" style="text;html=1;strokeColor=none;fillColor=none;align=center;verticalAlign=middle;whiteSpace=wrap;rounded=0;fontSize=22;labelBackgroundColor=#EDEDED;fontColor=#000000;" vertex="1" parent="1">
                    <mxGeometry x="920" y="820" width="600" height="30" as="geometry"/>
                </mxCell>
                <mxCell id="25" value="" style="shape=singleArrow;whiteSpace=wrap;html=1;fontSize=22;arrowWidth=0.35384114583332954;arrowSize=0.36115354880308437;fillColor=#eeeeee;strokeColor=#36393d;labelBackgroundColor=none;fontColor=#000000;" vertex="1" parent="1">
                    <mxGeometry x="1520" y="280" width="60" height="30" as="geometry"/>
                </mxCell>
                <mxCell id="26" value="Command Object&amp;nbsp;" style="shape=singleArrow;whiteSpace=wrap;html=1;fontSize=22;fillColor=#eeeeee;strokeColor=#36393d;labelBackgroundColor=none;fontColor=#000000;" vertex="1" parent="1">
                    <mxGeometry x="1520" y="80" width="280" height="140" as="geometry"/>
                </mxCell>
                <mxCell id="27" value="Executor" style="whiteSpace=wrap;html=1;aspect=fixed;rotation=0;labelBackgroundColor=none;fontSize=22;fillColor=#eeeeee;strokeColor=#36393d;fontColor=#000000;" vertex="1" parent="1">
                    <mxGeometry x="1800" y="45" width="600" height="400" as="geometry"/>
                </mxCell>
                <mxCell id="28" value="Command History" style="rounded=0;whiteSpace=wrap;html=1;labelBackgroundColor=none;fontSize=22;fillColor=#eeeeee;strokeColor=#36393d;fontColor=#000000;" vertex="1" parent="1">
                    <mxGeometry x="1580" y="272.5" width="190" height="85" as="geometry"/>
                </mxCell>
                <mxCell id="30" value="" style="curved=1;endArrow=classic;html=1;fontSize=22;exitX=1;exitY=0.5;exitDx=0;exitDy=0;entryX=0;entryY=0.5;entryDx=0;entryDy=0;entryPerimeter=0;exitPerimeter=0;startArrow=none;" edge="1" parent="1" target="25">
                    <mxGeometry width="50" height="50" relative="1" as="geometry">
                        <mxPoint x="1490" y="285" as="sourcePoint"/>
                        <mxPoint x="1494.95" y="330" as="targetPoint"/>
                        <Array as="points">
                            <mxPoint x="1510" y="290"/>
                            <mxPoint x="1500" y="315"/>
                        </Array>
                    </mxGeometry>
                </mxCell>
                <mxCell id="33" value="" style="curved=1;endArrow=none;html=1;fontSize=22;exitX=1;exitY=0.5;exitDx=0;exitDy=0;entryX=0.5;entryY=1;entryDx=0;entryDy=0;exitPerimeter=0;" edge="1" parent="1" source="8">
                    <mxGeometry width="50" height="50" relative="1" as="geometry">
                        <mxPoint x="1350" y="440" as="sourcePoint"/>
                        <mxPoint x="1380" y="370" as="targetPoint"/>
                        <Array as="points">
                            <mxPoint x="1340" y="410"/>
                            <mxPoint x="1380" y="410"/>
                        </Array>
                    </mxGeometry>
                </mxCell>
                <mxCell id="34" value="" style="shape=singleArrow;whiteSpace=wrap;html=1;fontSize=22;arrowWidth=0.35384114583332954;arrowSize=0.36115354880308437;direction=west;fillColor=#eeeeee;strokeColor=#36393d;labelBackgroundColor=none;fontColor=#000000;" vertex="1" parent="1">
                    <mxGeometry x="1520" y="320" width="60" height="30" as="geometry"/>
                </mxCell>
                <mxCell id="35" value="" style="whiteSpace=wrap;html=1;aspect=fixed;rotation=0;labelBackgroundColor=none;fontSize=22;fillColor=#eeeeee;strokeColor=#36393d;" vertex="1" parent="1">
                    <mxGeometry x="40" y="-460" width="600" height="400" as="geometry"/>
                </mxCell>
                <mxCell id="36" value="" style="shape=singleArrow;direction=south;whiteSpace=wrap;html=1;labelBackgroundColor=default;fontSize=22;fillColor=#eeeeee;strokeColor=#36393d;" vertex="1" parent="1">
                    <mxGeometry x="190" y="-60" width="60" height="100" as="geometry"/>
                </mxCell>
                <mxCell id="39" value="" style="shape=corner;whiteSpace=wrap;html=1;labelBackgroundColor=none;fontSize=20;direction=south;fillColor=#eeeeee;strokeColor=#36393d;fontColor=#000000;" vertex="1" parent="1">
                    <mxGeometry x="740" y="-270" width="1370" height="315" as="geometry"/>
                </mxCell>
                <mxCell id="40" value="" style="shape=singleArrow;direction=west;whiteSpace=wrap;html=1;labelBackgroundColor=default;fontSize=22;arrowWidth=0.2708085148971285;arrowSize=0.23656167493978625;fillColor=#eeeeee;strokeColor=#36393d;" vertex="1" parent="1">
                    <mxGeometry x="640" y="-295" width="430" height="70" as="geometry"/>
                </mxCell>
                <mxCell id="41" value="Actually execute the command in Google Drive. This will require some knowledge of the Drive API." style="text;html=1;strokeColor=none;fillColor=none;align=center;verticalAlign=middle;whiteSpace=wrap;rounded=0;labelBackgroundColor=#EDEDED;fontSize=20;fontColor=#000000;" vertex="1" parent="1">
                    <mxGeometry x="1360" y="-360" width="630" height="110" as="geometry"/>
                </mxCell>
                <mxCell id="42" value="" style="curved=1;endArrow=classic;html=1;fontSize=20;exitX=1;exitY=0.5;exitDx=0;exitDy=0;entryX=0.5;entryY=0;entryDx=0;entryDy=0;exitPerimeter=0;" edge="1" parent="1" source="26" target="27">
                    <mxGeometry width="50" height="50" relative="1" as="geometry">
                        <mxPoint x="1990" y="180" as="sourcePoint"/>
                        <mxPoint x="2040" y="130" as="targetPoint"/>
                        <Array as="points">
                            <mxPoint x="1910" y="60"/>
                            <mxPoint x="2100" y="170"/>
                        </Array>
                    </mxGeometry>
                </mxCell>
                <mxCell id="43" value="&lt;span style=&quot;font-family: Helvetica; font-size: 22px; font-style: normal; font-variant-ligatures: normal; font-variant-caps: normal; font-weight: 400; letter-spacing: normal; orphans: 2; text-align: center; text-indent: 0px; text-transform: none; widows: 2; word-spacing: 0px; -webkit-text-stroke-width: 0px; text-decoration-thickness: initial; text-decoration-style: initial; text-decoration-color: initial; float: none; display: inline !important;&quot;&gt;Folder and File information.&amp;nbsp;&lt;/span&gt;&lt;span style=&quot;border-color: rgb(0, 0, 0); font-family: Helvetica; font-style: normal; font-variant-ligatures: normal; font-variant-caps: normal; font-weight: 400; letter-spacing: normal; orphans: 2; text-align: center; text-indent: 0px; text-transform: none; widows: 2; word-spacing: 0px; -webkit-text-stroke-width: 0px; text-decoration-thickness: initial; text-decoration-style: initial; text-decoration-color: initial; font-size: 20px;&quot;&gt;This will require some knowledge of the Drive API.&lt;/span&gt;" style="text;whiteSpace=wrap;html=1;fontSize=20;labelBackgroundColor=#EBEBEB;fontColor=#000000;" vertex="1" parent="1">
                    <mxGeometry x="260" y="-45" width="350" height="70" as="geometry"/>
                </mxCell>
                <mxCell id="47" value="&lt;span style=&quot;background-color: rgb(238, 238, 238);&quot;&gt;&lt;br&gt;&lt;/span&gt;&lt;div style=&quot;border-color: rgb(0, 0, 0); font-family: Helvetica; font-size: 22px; font-style: normal; font-variant-ligatures: normal; font-variant-caps: normal; font-weight: 400; letter-spacing: normal; orphans: 2; text-indent: 0px; text-transform: none; widows: 2; word-spacing: 0px; -webkit-text-stroke-width: 0px; text-decoration-thickness: initial; text-decoration-style: initial; text-decoration-color: initial; text-align: center;&quot;&gt;&lt;span style=&quot;background-color: rgb(238, 238, 238);&quot;&gt;Google Drive&lt;/span&gt;&lt;/div&gt;&lt;span style=&quot;background-color: rgb(238, 238, 238);&quot;&gt;&lt;span style=&quot;border-color: rgb(0, 0, 0); font-family: Helvetica; font-size: 22px; font-style: normal; font-variant-ligatures: normal; font-variant-caps: normal; font-weight: 400; letter-spacing: normal; orphans: 2; text-align: left; text-indent: 0px; text-transform: none; widows: 2; word-spacing: 0px; -webkit-text-stroke-width: 0px; text-decoration-thickness: initial; text-decoration-style: initial; text-decoration-color: initial; float: none; display: inline !important;&quot;&gt;&lt;br style=&quot;border-color: rgb(0, 0, 0);&quot;&gt;(or some other remote file manager, in leau of a custom file storage platform)&lt;/span&gt;&lt;br&gt;&lt;/span&gt;" style="text;html=1;strokeColor=none;fillColor=none;align=center;verticalAlign=middle;whiteSpace=wrap;rounded=0;labelBackgroundColor=none;labelBorderColor=none;fontSize=20;fontColor=#000000;" vertex="1" parent="1">
                    <mxGeometry x="205" y="-250" width="270" height="90" as="geometry"/>
                </mxCell>
                <mxCell id="48" value="&lt;br&gt;&lt;span style=&quot;background-color: rgb(238, 238, 238);&quot;&gt;&lt;span style=&quot;font-family: Helvetica; font-size: 22px; font-style: normal; font-variant-ligatures: normal; font-variant-caps: normal; font-weight: 400; letter-spacing: normal; orphans: 2; text-align: center; text-indent: 0px; text-transform: none; widows: 2; word-spacing: 0px; -webkit-text-stroke-width: 0px; text-decoration-thickness: initial; text-decoration-style: initial; text-decoration-color: initial; float: none; display: inline !important;&quot;&gt;Invoker stores the Command into a LinkedList which holds the current runtime instance of the command history&lt;/span&gt;&lt;br&gt;&lt;/span&gt;" style="text;html=1;strokeColor=none;fillColor=none;align=center;verticalAlign=middle;whiteSpace=wrap;rounded=0;labelBackgroundColor=#EEEEEE;labelBorderColor=none;fontSize=20;fontColor=#000000;" vertex="1" parent="1">
                    <mxGeometry x="1300" y="300" width="210" height="30" as="geometry"/>
                </mxCell>
            </root>
        </mxGraphModel>
    </diagram>
</mxfile>